<?xml version="1.0" encoding="utf-8"?>
<!-- Generator: Adobe Illustrator 16.0.0, SVG Export Plug-In . SVG Version: 6.00 Build 0)  -->
<!DOCTYPE svg PUBLIC "-//W3C//DTD SVG 1.1//EN" "http://www.w3.org/Graphics/SVG/1.1/DTD/svg11.dtd">
<svg version="1.1" id="Layer_1" xmlns="http://www.w3.org/2000/svg" xmlns:xlink="http://www.w3.org/1999/xlink" x="0px" y="0px"
	 width="377.182px" height="217.5px" viewBox="0 0 377.182 217.5" enable-background="new 0 0 377.182 217.5" xml:space="preserve">
<path fill="#D69F16" d="M308.717,188.385c0,0-40.131-106.821-85.636-2.039C234.365,175.441,263.33,139.999,308.717,188.385z"/>
<path fill="#D69F16" d="M99.818,185.5c0,0-35.9-93-85-4.5C26.434,172,56.526,142.5,99.818,185.5z"/>
<circle fill="#353432" cx="56.818" cy="186" r="30.5"/>
<circle fill="#474644" cx="56.818" cy="186" r="21"/>
<circle fill="#545352" cx="56.818" cy="186" r="18"/>
<circle fill="#474644" cx="56.568" cy="185.75" r="9.25"/>
<ellipse fill="#7F4219" cx="62.401" cy="178.5" rx="1.083" ry="1.167"/>
<ellipse fill="#7F4219" cx="50.401" cy="192.5" rx="1.083" ry="1.167"/>
<ellipse fill="#7F4219" cx="52.401" cy="177.5" rx="1.083" ry="1.167"/>
<ellipse fill="#7F4219" cx="59.401" cy="194.5" rx="1.083" ry="1.167"/>
<ellipse fill="#7F4219" cx="47.401" cy="184.5" rx="1.083" ry="1.167"/>
<ellipse fill="#7F4219" cx="66.401" cy="186.5" rx="1.083" ry="1.167"/>
<path fill="#E8E3CA" d="M353.677,191.233c-0.548,0-1.084-0.18-1.523-0.518l-1.401-1.077c-1.095-0.841-1.3-2.411-0.459-3.505
	c0.842-1.094,2.411-1.3,3.506-0.458l0.553,0.425l17.534-2.719l-0.168-1.28l-10.728-8.449c-1.085-0.854-1.271-2.426-0.417-3.511
	c0.854-1.084,2.426-1.273,3.511-0.417l11.527,9.079c0.513,0.404,0.847,0.992,0.932,1.639l0.617,4.71
	c0.177,1.346-0.754,2.587-2.096,2.795l-21.005,3.257C353.933,191.223,353.804,191.233,353.677,191.233z"/>
<path fill="#F9CA03" d="M3.818,11.137L3.952,187h13.18c5.626-30,17.159-28,17.159-28s37.025,0,44.514,0c9.676,0,16.055,21,17.933,28
	H229.13c3.639-19,19.128-32.92,37.688-32.92c19.035,0,34.833,15.039,37.938,34.628c21.711,0.107,26.377-0.399,36.555-2.461
	l24.508-5.007l5-83.611L328.359,82.62l-15.041-46.572c-3.292-10.494-12.5-31.041-70.666-35.451c0,0-0.002,0.041-0.004,0.106
	c-1.404-0.384-3.746-0.505-7.633-0.704H13.627C8.21,0,3.818,4.714,3.818,11.137z M231.318,36.159c0,0-0.665-6.677,13.5-6.595
	c15,0.087,44.375,0.275,44.375,0.275s10.459-0.449,13.562,8.687c3.54,10.419,9.031,32.079,9.031,32.079S315.069,78,300.818,78
	c-16.5,0-62,0-62,0s-7.498,0.304-7.5-8.209C231.316,60.278,231.318,36.159,231.318,36.159z"/>
<path fill="#F4B608" d="M227.219,187l-0.617-87.235l-0.291-43.617l-0.023-10.904l-0.154-10.905l0.049-21.809v-0.034l0.195-0.031
	c0.104-0.698,0.354-1.276,0.57-1.875c0.092-0.301,0.265-0.587,0.394-0.872c0.127-0.285,0.267-0.575,0.429-0.841l0.469-0.813
	l0.541-0.762c0.334-0.525,0.792-0.954,1.196-1.419c0.412-0.459,0.919-0.822,1.374-1.234c0.477-0.388,1.015-0.688,1.519-1.034
	c0.506-0.346,1.086-0.554,1.624-0.835c0.537-0.292,1.118-0.465,1.691-0.656c0.576-0.178,1.136-0.422,1.733-0.505l1.766-0.35
	c0.587-0.125,1.189-0.123,1.781-0.191c0.595-0.042,1.187-0.121,1.781-0.132l1.781,0.023c0.593,0.021,1.188-0.013,1.776,0.054
	l3.527,0.38c0.055,0.006,0.094,0.254,0.088,0.31C250.413,1.764,250.367,2,250.315,2h-0.009l-3.521-0.348
	c-0.585-0.035-1.171-0.07-1.756-0.06l-1.751,0.019c-0.582,0.042-1.156,0.125-1.733,0.197c-0.573,0.097-1.159,0.111-1.719,0.264
	l-1.682,0.419c-0.569,0.112-1.091,0.361-1.632,0.55c-0.537,0.202-1.083,0.382-1.573,0.678c-0.493,0.284-1.031,0.495-1.485,0.834
	c-0.453,0.34-0.942,0.632-1.364,1.005c-0.399,0.396-0.852,0.739-1.209,1.172c-0.349,0.438-0.749,0.835-1.028,1.322l-0.456,0.701
	l-0.38,0.744c-0.138,0.242-0.229,0.505-0.332,0.762c-0.105,0.257-0.207,0.514-0.276,0.781c-0.17,0.513-0.287,1.088-0.342,1.556
	l0.003-0.064l0.241,21.809l0.038,10.905l-0.023,10.904l-0.291,43.617L227.418,187c0,0.055-0.045,0.1-0.101,0.099
	C227.263,187.099,227.219,187.055,227.219,187z"/>
<rect x="154.182" y="121" fill="#F4B608" width="2" height="66"/>
<polygon fill="#F4B608" points="349.543,183.79 302.076,27 228.182,27 228.182,25 303.561,25 303.775,25.71 351.457,183.21 "/>
<path fill="#F4B608" d="M322.597,152.93c-4.147,0-8.714-1.471-13.644-4.403c-4.154-2.515-7.011-6.636-10.034-10.998
	c-5.188-7.483-10.552-15.221-23.171-15.529c-20.27-0.494-48.67-0.5-48.955-0.5L4.182,121.501v-2l222.611-0.001
	c0.285,0,28.738,0.006,49.032,0.5c13.635,0.332,19.535,8.862,24.752,16.389c2.899,4.182,5.63,8.132,9.411,10.422
	c6.613,3.933,12.431,5.056,17.299,3.333c6.626-2.347,9.235-9.249,9.261-9.319l1.876,0.692c-0.118,0.319-2.973,7.854-10.473,10.512
	C326.256,152.63,324.469,152.93,322.597,152.93z"/>
<path fill="#F4B608" d="M361.319,182.25c-0.023,0-0.046-0.001-0.069-0.002c-0.551-0.038-0.967-0.515-0.93-1.066l5.75-83.75
	c0.038-0.552,0.521-0.964,1.066-0.929c0.551,0.038,0.967,0.515,0.93,1.066l-5.75,83.75
	C362.28,181.846,361.841,182.25,361.319,182.25z"/>
<path fill="#F4B608" d="M239.182,79.001c-4,0-9-1.948-9-9.251V36.125c0-0.105-0.077-1.733,1.617-3.605
	c2.245-2.48,6.584-3.52,12.761-3.52h0.265c14.83,0,43.711-0.034,44.361-0.031c0.009-0.001,0.12-0.114,0.295-0.114
	c1.846,0,11.208,0.394,14.222,9.253c3.416,10.04,8.698,30.83,9.038,32.171c0.19,0.49,0.947,2.755-0.469,4.929
	c-1.646,2.525-5.5,3.792-11.453,3.792h-62l-0.067-0.999L238.788,77h62.03c6.495,0,8.895-1.565,9.764-2.878
	c0.981-1.482,0.316-3.094,0.287-3.162c-0.02-0.047-0.039-0.103-0.052-0.153c-0.055-0.218-5.521-21.862-9.008-32.11
	c-2.575-7.569-10.722-7.952-12.329-7.952c-0.146,0-0.229,0.222-0.241,0.223C289.236,30.981,259.818,31,244.812,31h-0.253
	c-6.887,0-9.868,1.424-11.156,2.803c-1.157,1.239-1.092,2.298-1.089,2.347l0.219,33.654c0.002,6.901,4.648,7.196,6.648,7.196V79.001
	z"/>
<rect x="4.182" y="18" fill="#F4B608" width="223" height="2"/>
<path fill="#E8E3CA" d="M360.318,99.667c-0.209,0-0.423-0.033-0.633-0.103l-10-3.333c-1.048-0.35-1.614-1.482-1.265-2.53
	c0.349-1.047,1.478-1.615,2.53-1.265l10,3.333c1.048,0.35,1.614,1.482,1.265,2.53C361.937,99.138,361.156,99.667,360.318,99.667z"/>
<g>
	<path fill="#F4B608" d="M4.317,82.501c-0.552,0-1-0.448-1-1s0.448-1,1-1L226.818,80.5c0.553,0,1,0.448,1,1s-0.447,1-1,1
		L4.317,82.501z"/>
	<path fill="#FFDC48" d="M224.182,88h-218c-0.829,0-1.5-0.671-1.5-1.5s0.671-1.5,1.5-1.5h218c0.829,0,1.5,0.671,1.5,1.5
		S225.01,88,224.182,88z"/>
	<path fill="#FFDC48" d="M224.182,93h-218c-0.829,0-1.5-0.671-1.5-1.5s0.671-1.5,1.5-1.5h218c0.829,0,1.5,0.671,1.5,1.5
		S225.01,93,224.182,93z"/>
	<path fill="#FFDC48" d="M224.182,98h-218c-0.829,0-1.5-0.671-1.5-1.5s0.671-1.5,1.5-1.5h218c0.829,0,1.5,0.671,1.5,1.5
		S225.01,98,224.182,98z"/>
	<path fill="#FFDC48" d="M224.182,103h-218c-0.829,0-1.5-0.671-1.5-1.5s0.671-1.5,1.5-1.5h218c0.829,0,1.5,0.671,1.5,1.5
		S225.01,103,224.182,103z"/>
	<path fill="#FFDC48" d="M224.182,108h-218c-0.829,0-1.5-0.671-1.5-1.5s0.671-1.5,1.5-1.5h218c0.829,0,1.5,0.671,1.5,1.5
		S225.01,108,224.182,108z"/>
	<path fill="#FFDC48" d="M224.182,113h-218c-0.829,0-1.5-0.671-1.5-1.5s0.671-1.5,1.5-1.5h218c0.829,0,1.5,0.671,1.5,1.5
		S225.01,113,224.182,113z"/>
	<path fill="#FFDC48" d="M224.182,118h-218c-0.829,0-1.5-0.671-1.5-1.5s0.671-1.5,1.5-1.5h218c0.829,0,1.5,0.671,1.5,1.5
		S225.01,118,224.182,118z"/>
	<path fill="#FFDC48" d="M224.182,127h-66c-0.829,0-1.5-0.671-1.5-1.5s0.671-1.5,1.5-1.5h66c0.829,0,1.5,0.671,1.5,1.5
		S225.01,127,224.182,127z"/>
	<path fill="#FFDC48" d="M224.182,132h-66c-0.829,0-1.5-0.671-1.5-1.5s0.671-1.5,1.5-1.5h66c0.829,0,1.5,0.671,1.5,1.5
		S225.01,132,224.182,132z"/>
	<path fill="#FFDC48" d="M224.182,137h-66c-0.829,0-1.5-0.671-1.5-1.5s0.671-1.5,1.5-1.5h66c0.829,0,1.5,0.671,1.5,1.5
		S225.01,137,224.182,137z"/>
	<path fill="#FFDC48" d="M224.182,142h-66c-0.829,0-1.5-0.671-1.5-1.5s0.671-1.5,1.5-1.5h66c0.829,0,1.5,0.671,1.5,1.5
		S225.01,142,224.182,142z"/>
	<path fill="#FFDC48" d="M224.182,147h-66c-0.829,0-1.5-0.671-1.5-1.5s0.671-1.5,1.5-1.5h66c0.829,0,1.5,0.671,1.5,1.5
		S225.01,147,224.182,147z"/>
	<path fill="#FFDC48" d="M224.182,152h-66c-0.829,0-1.5-0.671-1.5-1.5s0.671-1.5,1.5-1.5h66c0.829,0,1.5,0.671,1.5,1.5
		S225.01,152,224.182,152z"/>
	<path fill="#FFDC48" d="M224.182,157h-66c-0.829,0-1.5-0.671-1.5-1.5s0.671-1.5,1.5-1.5h66c0.829,0,1.5,0.671,1.5,1.5
		S225.01,157,224.182,157z"/>
	<path fill="#FFDC48" d="M224.182,162h-66c-0.829,0-1.5-0.671-1.5-1.5s0.671-1.5,1.5-1.5h66c0.829,0,1.5,0.671,1.5,1.5
		S225.01,162,224.182,162z"/>
	<path fill="#FFDC48" d="M224.182,167h-66c-0.829,0-1.5-0.671-1.5-1.5s0.671-1.5,1.5-1.5h66c0.829,0,1.5,0.671,1.5,1.5
		S225.01,167,224.182,167z"/>
	<path fill="#FFDC48" d="M224.182,172h-66c-0.829,0-1.5-0.671-1.5-1.5s0.671-1.5,1.5-1.5h66c0.829,0,1.5,0.671,1.5,1.5
		S225.01,172,224.182,172z"/>
	<path fill="#FFDC48" d="M224.182,177h-66c-0.829,0-1.5-0.671-1.5-1.5s0.671-1.5,1.5-1.5h66c0.829,0,1.5,0.671,1.5,1.5
		S225.01,177,224.182,177z"/>
	<path fill="#FFDC48" d="M224.182,182h-66c-0.829,0-1.5-0.671-1.5-1.5s0.671-1.5,1.5-1.5h66c0.829,0,1.5,0.671,1.5,1.5
		S225.01,182,224.182,182z"/>
	<path fill="#FFDC48" d="M151.182,127h-145c-0.829,0-1.5-0.671-1.5-1.5s0.671-1.5,1.5-1.5h145c0.829,0,1.5,0.671,1.5,1.5
		S152.01,127,151.182,127z"/>
	<path fill="#FFDC48" d="M151.182,132h-145c-0.829,0-1.5-0.671-1.5-1.5s0.671-1.5,1.5-1.5h145c0.829,0,1.5,0.671,1.5,1.5
		S152.01,132,151.182,132z"/>
	<path fill="#FFDC48" d="M151.182,137h-145c-0.829,0-1.5-0.671-1.5-1.5s0.671-1.5,1.5-1.5h145c0.829,0,1.5,0.671,1.5,1.5
		S152.01,137,151.182,137z"/>
	<path fill="#FFDC48" d="M151.182,142h-145c-0.829,0-1.5-0.671-1.5-1.5s0.671-1.5,1.5-1.5h145c0.829,0,1.5,0.671,1.5,1.5
		S152.01,142,151.182,142z"/>
	<path fill="#FFDC48" d="M151.182,147h-48c-0.829,0-1.5-0.671-1.5-1.5s0.671-1.5,1.5-1.5h48c0.829,0,1.5,0.671,1.5,1.5
		S152.01,147,151.182,147z"/>
	<path fill="#FFDC48" d="M151.182,152h-48c-0.829,0-1.5-0.671-1.5-1.5s0.671-1.5,1.5-1.5h48c0.829,0,1.5,0.671,1.5,1.5
		S152.01,152,151.182,152z"/>
	<path fill="#FFDC48" d="M151.182,157h-48c-0.829,0-1.5-0.671-1.5-1.5s0.671-1.5,1.5-1.5h48c0.829,0,1.5,0.671,1.5,1.5
		S152.01,157,151.182,157z"/>
	<path fill="#FFDC48" d="M151.182,162h-48c-0.829,0-1.5-0.671-1.5-1.5s0.671-1.5,1.5-1.5h48c0.829,0,1.5,0.671,1.5,1.5
		S152.01,162,151.182,162z"/>
	<path fill="#FFDC48" d="M151.182,167h-48c-0.829,0-1.5-0.671-1.5-1.5s0.671-1.5,1.5-1.5h48c0.829,0,1.5,0.671,1.5,1.5
		S152.01,167,151.182,167z"/>
	<path fill="#FFDC48" d="M151.182,172h-48c-0.829,0-1.5-0.671-1.5-1.5s0.671-1.5,1.5-1.5h48c0.829,0,1.5,0.671,1.5,1.5
		S152.01,172,151.182,172z"/>
	<path fill="#FFDC48" d="M151.182,177h-48c-0.829,0-1.5-0.671-1.5-1.5s0.671-1.5,1.5-1.5h48c0.829,0,1.5,0.671,1.5,1.5
		S152.01,177,151.182,177z"/>
	<path fill="#FFDC48" d="M151.182,182h-48c-0.829,0-1.5-0.671-1.5-1.5s0.671-1.5,1.5-1.5h48c0.829,0,1.5,0.671,1.5,1.5
		S152.01,182,151.182,182z"/>
	<path fill="#FFDC48" d="M98.818,181c0,0,1.384-34.451,0-35.5c-3.625-2.75-90.875-0.125-90.5,0
		C54.999,161.06,94.818,131.5,98.818,181z"/>
	<path fill="#E8E3CA" d="M342.818,93.167c-0.209,0-0.423-0.033-0.633-0.103l-10-3.333c-1.048-0.35-1.614-1.482-1.265-2.53
		c0.349-1.047,1.479-1.614,2.53-1.265l10,3.333c1.048,0.35,1.614,1.482,1.265,2.53C344.437,92.638,343.656,93.167,342.818,93.167z"
		/>
	<path fill="#FFDC48" d="M318.182,88h-86c-0.828,0-1.5-0.671-1.5-1.5s0.672-1.5,1.5-1.5h86c0.828,0,1.5,0.671,1.5,1.5
		S319.01,88,318.182,88z"/>
	<path fill="#FFDC48" d="M320.182,93h-88c-0.828,0-1.5-0.671-1.5-1.5s0.672-1.5,1.5-1.5h88c0.828,0,1.5,0.671,1.5,1.5
		S321.01,93,320.182,93z"/>
	<path fill="#FFDC48" d="M321.182,98h-89c-0.828,0-1.5-0.671-1.5-1.5s0.672-1.5,1.5-1.5h89c0.828,0,1.5,0.671,1.5,1.5
		S322.01,98,321.182,98z"/>
	<path fill="#FFDC48" d="M323.182,103h-91c-0.828,0-1.5-0.671-1.5-1.5s0.672-1.5,1.5-1.5h91c0.828,0,1.5,0.671,1.5,1.5
		S324.01,103,323.182,103z"/>
	<path fill="#FFDC48" d="M324.182,108h-92c-0.828,0-1.5-0.671-1.5-1.5s0.672-1.5,1.5-1.5h92c0.828,0,1.5,0.671,1.5,1.5
		S325.01,108,324.182,108z"/>
	<path fill="#FFDC48" d="M326.182,113h-94c-0.828,0-1.5-0.671-1.5-1.5s0.672-1.5,1.5-1.5h94c0.828,0,1.5,0.671,1.5,1.5
		S327.01,113,326.182,113z"/>
	<path fill="#FFDC48" d="M327.182,118h-95c-0.828,0-1.5-0.671-1.5-1.5s0.672-1.5,1.5-1.5h95c0.828,0,1.5,0.671,1.5,1.5
		S328.01,118,327.182,118z"/>
	<path fill="#FFDC48" d="M329.182,123h-39c-0.828,0-1.5-0.671-1.5-1.5s0.672-1.5,1.5-1.5h39c0.828,0,1.5,0.671,1.5,1.5
		S330.01,123,329.182,123z"/>
	<path fill="#FFDC48" d="M330.182,128h-33c-0.828,0-1.5-0.671-1.5-1.5s0.672-1.5,1.5-1.5h33c0.828,0,1.5,0.671,1.5,1.5
		S331.01,128,330.182,128z"/>
	<path fill="#FFDC48" d="M331.182,133h-30c-0.828,0-1.5-0.671-1.5-1.5s0.672-1.5,1.5-1.5h30c0.828,0,1.5,0.671,1.5,1.5
		S332.01,133,331.182,133z"/>
	<path fill="#FFDC48" d="M333.182,138h-29c-0.828,0-1.5-0.671-1.5-1.5s0.672-1.5,1.5-1.5h29c0.828,0,1.5,0.671,1.5,1.5
		S334.01,138,333.182,138z"/>
	<path fill="#FFDC48" d="M333.068,143c-0.005,0-0.01,0-0.015,0l-25.25-0.125c-0.828-0.008-1.493-0.624-1.485-1.452
		s0.662-1.427,1.515-1.454l25.25,0.266c0.828,0.008,1.493,0.569,1.485,1.397C334.561,142.455,333.89,143,333.068,143z"/>
</g>
<path fill="#E8E3CA" d="M352.674,181.491c-0.893,0-1.706-0.601-1.937-1.505c-0.273-1.07,0.372-2.159,1.442-2.433l5.788-1.479
	c1.076-0.276,2.16,0.374,2.433,1.442c0.273,1.07-0.372,2.159-1.442,2.433l-5.788,1.479
	C353.004,181.47,352.837,181.491,352.674,181.491z"/>
<path fill="#FFDC48" d="M362.818,107.5c-0.166,0-0.336-0.028-0.501-0.087l-35.25-12.5c-0.781-0.277-1.189-1.134-0.913-1.915
	c0.278-0.78,1.137-1.19,1.915-0.912l35.25,12.5c0.781,0.277,1.189,1.134,0.913,1.915C364.014,107.116,363.436,107.5,362.818,107.5z"
	/>
<path fill="#FFDC48" d="M362.818,113.5c-0.168,0-0.338-0.028-0.505-0.088l-34.25-12.25c-0.78-0.279-1.187-1.138-0.907-1.918
	c0.278-0.78,1.137-1.188,1.917-0.907l34.25,12.25c0.78,0.279,1.187,1.138,0.907,1.918C364.012,113.118,363.435,113.5,362.818,113.5z
	"/>
<path fill="#FFDC48" d="M362.318,118.606c-0.168,0-0.338-0.028-0.505-0.088l-31.75-11.356c-0.78-0.279-1.187-1.138-0.907-1.918
	c0.278-0.78,1.136-1.186,1.917-0.907l31.75,11.356c0.78,0.279,1.187,1.138,0.907,1.918
	C363.512,118.224,362.935,118.606,362.318,118.606z"/>
<path fill="#FFDC48" d="M361.818,124.354c-0.168,0-0.338-0.028-0.505-0.088l-28.25-10.104c-0.78-0.279-1.187-1.138-0.907-1.918
	c0.278-0.78,1.136-1.187,1.917-0.907l28.25,10.104c0.78,0.279,1.187,1.138,0.907,1.918
	C363.012,123.972,362.435,124.354,361.818,124.354z"/>
<path fill="#FFDC48" d="M361.67,130.229c-0.168,0-0.338-0.028-0.505-0.088l-25.102-8.978c-0.78-0.279-1.187-1.138-0.907-1.918
	c0.278-0.781,1.137-1.186,1.917-0.907l25.102,8.978c0.78,0.279,1.187,1.138,0.907,1.918
	C362.863,129.846,362.286,130.229,361.67,130.229z"/>
<path fill="#FFDC48" d="M361.318,135.745c-0.168,0-0.338-0.028-0.505-0.088l-23.75-8.495c-0.78-0.279-1.187-1.138-0.907-1.918
	c0.278-0.78,1.136-1.187,1.917-0.907l23.75,8.495c0.78,0.279,1.187,1.138,0.907,1.918
	C362.512,135.363,361.935,135.745,361.318,135.745z"/>
<path fill="#FFDC48" d="M360.818,140.851c-0.168,0-0.338-0.028-0.505-0.088l-21.25-7.601c-0.78-0.279-1.187-1.138-0.907-1.918
	c0.278-0.78,1.136-1.187,1.917-0.907l21.25,7.601c0.78,0.279,1.187,1.138,0.907,1.918
	C362.012,140.469,361.435,140.851,360.818,140.851z"/>
<path fill="#FFDC48" d="M360.441,146c-0.168,0-0.338-0.028-0.505-0.088l-18.873-6.75c-0.78-0.279-1.187-1.138-0.907-1.918
	c0.278-0.78,1.137-1.187,1.917-0.907l18.873,6.75c0.78,0.279,1.187,1.138,0.907,1.918C361.635,145.618,361.058,146,360.441,146z"/>
<path fill="#FFDC48" d="M360.043,151.5c-0.168,0-0.338-0.028-0.505-0.088l-17.475-6.25c-0.78-0.279-1.187-1.138-0.907-1.918
	c0.278-0.78,1.136-1.187,1.917-0.907l17.475,6.25c0.78,0.279,1.187,1.138,0.907,1.918C361.236,151.118,360.659,151.5,360.043,151.5z
	"/>
<path fill="#FFDC48" d="M359.568,156.616c-0.168,0-0.338-0.028-0.505-0.088l-15-5.365c-0.78-0.279-1.187-1.138-0.907-1.918
	c0.278-0.78,1.137-1.187,1.917-0.907l15,5.365c0.78,0.279,1.187,1.138,0.907,1.918C360.762,156.233,360.185,156.616,359.568,156.616
	z"/>
<path fill="#FFDC48" d="M358.568,161.542c-0.168,0-0.338-0.028-0.505-0.088l-12-4.292c-0.78-0.279-1.187-1.138-0.907-1.918
	c0.278-0.78,1.136-1.187,1.917-0.907l12,4.292c0.78,0.279,1.187,1.138,0.907,1.918C359.762,161.16,359.185,161.542,358.568,161.542z
	"/>
<path fill="#FFDC48" d="M358.318,166.738c-0.168,0-0.338-0.028-0.505-0.088l-9.75-3.487c-0.78-0.279-1.187-1.138-0.907-1.918
	c0.278-0.78,1.135-1.187,1.917-0.907l9.75,3.487c0.78,0.279,1.187,1.138,0.907,1.918
	C359.512,166.355,358.935,166.738,358.318,166.738z"/>
<path fill="#FFDC48" d="M358.568,172.053c-0.167,0-0.336-0.028-0.502-0.087l-8-2.84c-0.78-0.277-1.188-1.135-0.911-1.916
	c0.276-0.781,1.135-1.189,1.915-0.912l8,2.84c0.78,0.277,1.188,1.135,0.911,1.916C359.764,171.669,359.186,172.053,358.568,172.053z
	"/>
<path fill="#E8E3CA" d="M297.057,53.18c0.615,2.334,3.463,3.606,6.359,2.843l0.338-0.089c2.898-0.764,4.747-3.275,4.132-5.609
	l-5.247-19.904c-0.615-2.334-3.462-3.607-6.358-2.843l-0.339,0.089c-2.896,0.764-4.746,3.274-4.131,5.608L297.057,53.18z"/>
<path fill="#C6C2B3" d="M302.56,54.551C302.56,54.551,302.56,54.551,302.56,54.551c-2.277,0-4.135-1.241-4.621-3.087l-4.646-17.63
	c-0.304-1.149-0.04-2.367,0.743-3.43c0.758-1.03,1.92-1.793,3.271-2.149l0.299-0.08c0.536-0.141,1.081-0.212,1.621-0.212
	c2.277,0,4.136,1.241,4.623,3.087l4.646,17.63c0.304,1.149,0.039,2.367-0.743,3.429c-0.759,1.03-1.921,1.793-3.271,2.15
	l-0.302,0.079C303.646,54.479,303.1,54.551,302.56,54.551z M299.227,28.963c-0.454,0-0.913,0.06-1.366,0.179l-0.299,0.08
	c-1.132,0.298-2.098,0.929-2.722,1.775c-0.6,0.814-0.806,1.73-0.581,2.582l4.646,17.63c0.369,1.4,1.838,2.342,3.654,2.342l0,0
	c0.454,0,0.914-0.061,1.366-0.18l0.302-0.079c1.13-0.298,2.097-0.929,2.72-1.775c0.6-0.814,0.807-1.731,0.582-2.582l-4.646-17.63
	C302.513,29.905,301.044,28.963,299.227,28.963z"/>
<path fill="#E8E3CA" d="M353.818,116c0,0,8,7.5-0.25,13.5c-3-1-8.75-6.25-8.75-6.25s-1-1.5,0.75-2.75S353.818,116,353.818,116z"/>
<path fill="#FFFFFF" d="M353.818,116c0,0,7.5,8-0.25,13.5C353.318,127,353.818,116,353.818,116z"/>
<path fill="#E8E3CA" d="M328.716,184.71c-2.146,0-4.046-1.54-4.428-3.726c-0.428-2.448,1.21-4.78,3.658-5.208l11.116-1.943
	c2.452-0.43,4.779,1.21,5.207,3.658c0.428,2.448-1.21,4.78-3.658,5.208l-11.116,1.943
	C329.233,184.688,328.973,184.71,328.716,184.71z"/>
<circle fill="#353432" cx="266.818" cy="187" r="30.5"/>
<circle fill="#474644" cx="266.818" cy="187" r="21"/>
<circle fill="#545352" cx="266.818" cy="187" r="18"/>
<circle fill="#474644" cx="266.568" cy="186.75" r="9.25"/>
<ellipse fill="#7F4219" cx="272.401" cy="179.5" rx="1.083" ry="1.167"/>
<ellipse fill="#7F4219" cx="260.401" cy="193.5" rx="1.083" ry="1.167"/>
<ellipse fill="#7F4219" cx="262.401" cy="178.5" rx="1.083" ry="1.167"/>
<ellipse fill="#7F4219" cx="269.401" cy="195.5" rx="1.083" ry="1.167"/>
<ellipse fill="#7F4219" cx="257.401" cy="185.5" rx="1.083" ry="1.167"/>
<ellipse fill="#7F4219" cx="276.401" cy="187.5" rx="1.083" ry="1.167"/>
<path fill="#E8E3CA" d="M18.182,190H2.818c-1.319,0-2.411-1.025-2.495-2.341l-0.318-5c-0.087-1.378,0.958-2.566,2.336-2.654
	c1.367-0.089,2.566,0.958,2.654,2.336L5.164,185h13.018c1.381,0,2.5,1.119,2.5,2.5S19.562,190,18.182,190z"/>
<rect x="28.182" y="63" fill="#6AA56A" width="176" height="3"/>
<circle fill="#74BA74" cx="119.318" cy="50.5" r="27.5"/>
<rect x="28.182" y="40" fill="#74BA74" width="176" height="24"/>
<path fill="#897D49" d="M98.469,64c1.85,3.75,8.715,13.163,19.85,12.75c13.5-0.5,20-7,20.5-12.75H98.469z"/>
<ellipse fill="#A09564" cx="119.818" cy="69.5" rx="5.25" ry="5"/>
<g>
	<path fill="#3D8E41" d="M107.182,41.057c0-0.033,0-0.064,0-0.092c0-0.108,0.009-0.217,0.009-0.328c0-1.229,1.119-2.225,2.349-2.225
		c1.031,0,2.122,0.776,2.194,2.213c0.004,0.086-0.018,0.213-0.016,0.373c0.073,5.641,2.48,8.383,7.388,8.383
		c1.847,0,3.216-0.564,4.207-1.721c2.472-2.894,2.153-8.9,1.826-10.973c-0.193-1.211,0.618-2.35,1.829-2.545
		c1.212-0.195,2.324,0.629,2.521,1.842c0.062,0.385,1.414,9.496-2.893,14.552c-1.834,2.153-4.389,3.291-7.53,3.291
		C111.64,53.827,107.182,49.172,107.182,41.057z M109.441,42.858c-0.221-0.001-0.435-0.034-0.635-0.094
		C109.004,42.824,109.217,42.857,109.441,42.858z M107.443,41.596c-0.043-0.09-0.082-0.184-0.113-0.281
		C107.36,41.41,107.398,41.504,107.443,41.596z"/>
	<path fill="#3D8E41" d="M117.455,72.502c1.592,0,3.016-1.121,3.34-2.741c0.911-4.559,0.955-32.84,0.955-38.463
		c0-1.882-1.527-3.408-3.409-3.408l0,0c-1.883,0-3.409,1.526-3.409,3.409c0.002,12.758-0.222,34.119-0.822,37.125
		c-0.37,1.847,0.828,3.643,2.674,4.011C117.009,72.48,117.234,72.502,117.455,72.502z"/>
	<path fill="#3D8E41" d="M121.707,62.716c1.389,0,2.48-0.361,3.273-0.771c3.278-1.695,4.184-5.44,4.277-5.862
		c0.262-1.2-0.496-2.385-1.695-2.648c-1.195-0.262-2.377,0.49-2.645,1.682c-0.142,0.595-0.771,2.266-1.996,2.889
		c-0.85,0.431-2.001,0.346-3.42-0.253c-1.131-0.479-2.435,0.051-2.912,1.182c-0.479,1.131,0.051,2.435,1.182,2.913
		C119.274,62.48,120.586,62.716,121.707,62.716z"/>
	<path fill="#306B32" d="M115.244,32.558c0.146,0,0.291-0.072,0.375-0.206c0.133-0.207,0.071-0.481-0.136-0.613l-0.698-0.444
		c-0.208-0.132-0.482-0.071-0.615,0.136c-0.131,0.207-0.07,0.482,0.137,0.614l0.699,0.444
		C115.08,32.535,115.162,32.558,115.244,32.558z"/>
	<path fill="#306B32" d="M114.636,35.599h0.593c0.246,0,0.445-0.112,0.445-0.358s-0.199-0.358-0.445-0.358h-0.593
		c-0.245,0-0.444,0.112-0.444,0.358S114.391,35.599,114.636,35.599z"/>
	<path fill="#306B32" d="M121.602,32.855c0.064,0,0.129-0.015,0.19-0.044l1.408-0.667c0.222-0.105,0.316-0.37,0.212-0.592
		c-0.105-0.222-0.371-0.316-0.593-0.211l-1.407,0.666c-0.223,0.105-0.317,0.371-0.212,0.592
		C121.275,32.76,121.436,32.855,121.602,32.855z"/>
	<path fill="#306B32" d="M121.305,34.485c0.063,0,0.127-0.013,0.187-0.042L122.455,34c0.223-0.104,0.319-0.367,0.217-0.591
		c-0.102-0.223-0.366-0.321-0.59-0.217l-0.963,0.444c-0.223,0.103-0.32,0.367-0.217,0.59
		C120.977,34.389,121.137,34.485,121.305,34.485z"/>
	<path fill="#306B32" d="M120.49,37.301c0.177,0,0.344-0.105,0.412-0.279c0.092-0.229-0.02-0.486-0.246-0.578l-1.113-0.444
		c-0.227-0.092-0.486,0.02-0.577,0.247c-0.092,0.229,0.02,0.486,0.247,0.578l1.111,0.445
		C120.379,37.291,120.435,37.301,120.49,37.301z"/>
	<path fill="#306B32" d="M118.208,31.891c0.245,0,0.358-0.199,0.358-0.443v-0.891c0-0.245-0.113-0.444-0.358-0.444
		s-0.358,0.199-0.358,0.444v0.891C117.85,31.691,117.963,31.891,118.208,31.891z"/>
	<path fill="#306B32" d="M116.414,29.074c0.094,0,0.188-0.028,0.268-0.088c0.195-0.148,0.236-0.426,0.088-0.623l-0.666-0.889
		c-0.148-0.197-0.428-0.236-0.623-0.089s-0.236,0.426-0.089,0.622l0.667,0.889C116.146,29.014,116.279,29.074,116.414,29.074z"/>
	<path fill="#306B32" d="M117.525,28.557c0.017,0,0.033-0.001,0.051-0.003c0.242-0.027,0.419-0.247,0.391-0.491l-0.072-0.667
		c-0.027-0.243-0.25-0.419-0.492-0.393c-0.244,0.027-0.42,0.247-0.393,0.491l0.074,0.667
		C117.109,28.388,117.302,28.557,117.525,28.557z"/>
	<path fill="#306B32" d="M116.342,42.785c0.221,0,0.412-0.165,0.439-0.39c0.031-0.245-0.143-0.466-0.386-0.497l-0.593-0.073
		c-0.242-0.03-0.467,0.142-0.496,0.386c-0.031,0.244,0.142,0.466,0.385,0.496l0.594,0.074
		C116.303,42.783,116.322,42.785,116.342,42.785z"/>
	<path fill="#306B32" d="M121.156,45h1.187c0.245,0,0.444-0.255,0.444-0.5c0-0.246-0.199-0.5-0.444-0.5h-1.187
		c-0.244,0-0.443,0.254-0.443,0.5C120.713,44.745,120.912,45,121.156,45z"/>
	<path fill="#306B32" d="M121.305,43.378c0.136,0,0.27-0.062,0.355-0.178l0.668-0.89c0.146-0.197,0.107-0.475-0.09-0.623
		c-0.195-0.146-0.475-0.107-0.621,0.09l-0.668,0.889c-0.146,0.197-0.107,0.475,0.09,0.623
		C121.118,43.35,121.212,43.378,121.305,43.378z"/>
	<path fill="#306B32" d="M117.682,45.527c0.246,0,0.5-0.199,0.5-0.445v-1.186c0-0.245-0.254-0.445-0.5-0.445
		c-0.245,0-0.5,0.2-0.5,0.445v1.186C117.182,45.328,117.437,45.527,117.682,45.527z"/>
	<path fill="#306B32" d="M115.674,45.748c0.174,0,0.34-0.103,0.41-0.274c0.094-0.228-0.014-0.487-0.241-0.58l-1.261-0.52
		c-0.227-0.093-0.486,0.015-0.58,0.242s0.015,0.487,0.242,0.581l1.26,0.518C115.559,45.738,115.616,45.748,115.674,45.748z"/>
	<path fill="#306B32" d="M115.007,47.083c0.208,0,0.394-0.146,0.435-0.358c0.049-0.24-0.107-0.474-0.348-0.523l-0.741-0.146
		c-0.241-0.048-0.476,0.107-0.523,0.348c-0.048,0.242,0.108,0.476,0.349,0.523l0.742,0.148
		C114.949,47.08,114.979,47.083,115.007,47.083z"/>
	<path fill="#306B32" d="M110.856,41.006c0.054,0,0.106-0.01,0.159-0.029l0.963-0.371c0.23-0.088,0.345-0.346,0.256-0.574
		c-0.088-0.229-0.346-0.344-0.574-0.256l-0.963,0.371c-0.23,0.088-0.344,0.346-0.256,0.574
		C110.51,40.898,110.678,41.006,110.856,41.006z"/>
	<path fill="#306B32" d="M110.412,39.45c0.153,0,0.303-0.081,0.386-0.225l0.593-1.037c0.122-0.214,0.048-0.485-0.166-0.606
		c-0.213-0.123-0.484-0.047-0.605,0.166l-0.594,1.037c-0.122,0.213-0.048,0.484,0.166,0.605
		C110.26,39.432,110.336,39.45,110.412,39.45z"/>
	<path fill="#306B32" d="M107.521,43.6c0.014,0,0.029,0,0.045-0.002l0.74-0.074c0.245-0.023,0.423-0.242,0.398-0.486
		c-0.025-0.244-0.243-0.422-0.486-0.398l-0.742,0.074c-0.243,0.024-0.422,0.242-0.397,0.487
		C107.102,43.429,107.295,43.6,107.521,43.6z"/>
	<path fill="#306B32" d="M109.609,48.195c0.246,0,0.358-0.2,0.358-0.445v-0.89c0-0.245-0.112-0.444-0.358-0.444
		s-0.357,0.199-0.357,0.444v0.89C109.252,47.995,109.363,48.195,109.609,48.195z"/>
	<path fill="#306B32" d="M108.115,47.063h0.592c0.246,0,0.445-0.112,0.445-0.358c0-0.245-0.199-0.358-0.445-0.358h-0.592
		c-0.246,0-0.445,0.113-0.445,0.358C107.67,46.951,107.869,47.063,108.115,47.063z"/>
	<path fill="#306B32" d="M110.189,46.119c0.113,0,0.228-0.043,0.314-0.13l0.519-0.519c0.175-0.174,0.175-0.455,0-0.629
		c-0.174-0.174-0.455-0.174-0.63,0l-0.518,0.518c-0.174,0.175-0.174,0.456,0,0.63C109.963,46.076,110.076,46.119,110.189,46.119z"/>
	<path fill="#306B32" d="M112.042,51.158c0.026,0,0.054-0.002,0.079-0.006l0.816-0.149c0.24-0.044,0.4-0.274,0.357-0.517
		c-0.044-0.241-0.277-0.402-0.518-0.358l-0.815,0.148c-0.241,0.044-0.401,0.276-0.357,0.517
		C111.643,51.009,111.83,51.158,112.042,51.158z"/>
	<path fill="#306B32" d="M115.006,55.087c0.18,0,0.348-0.108,0.415-0.286c0.089-0.229-0.026-0.486-0.255-0.574l-0.963-0.371
		c-0.23-0.087-0.487,0.027-0.576,0.257c-0.088,0.229,0.027,0.486,0.257,0.574l0.963,0.371
		C114.898,55.077,114.953,55.087,115.006,55.087z"/>
	<path fill="#306B32" d="M115.674,53.382c0.046,0,0.094-0.007,0.14-0.022c0.233-0.078,0.36-0.33,0.281-0.563l-0.444-1.333
		c-0.078-0.233-0.33-0.358-0.562-0.281s-0.359,0.329-0.281,0.562l0.444,1.334C115.314,53.265,115.486,53.382,115.674,53.382z"/>
	<path fill="#306B32" d="M116.562,52.271c0.193,0,0.372-0.128,0.428-0.323l0.445-1.555c0.066-0.237-0.07-0.482-0.307-0.551
		c-0.234-0.068-0.481,0.068-0.549,0.307l-0.445,1.555c-0.067,0.236,0.069,0.482,0.306,0.55
		C116.48,52.266,116.521,52.271,116.562,52.271z"/>
	<path fill="#306B32" d="M119.749,50.641c0.179,0,0.347-0.109,0.415-0.285l0.37-0.964c0.088-0.229-0.025-0.485-0.255-0.575
		c-0.229-0.086-0.486,0.027-0.574,0.256l-0.371,0.963c-0.088,0.23,0.025,0.486,0.256,0.575
		C119.642,50.631,119.695,50.641,119.749,50.641z"/>
	<path fill="#306B32" d="M123.38,54.049c0.169,0,0.329-0.095,0.403-0.258c0.104-0.224,0.006-0.487-0.217-0.591l-0.963-0.444
		c-0.223-0.103-0.488-0.006-0.59,0.218c-0.104,0.223-0.006,0.486,0.217,0.59l0.963,0.444
		C123.254,54.035,123.317,54.049,123.38,54.049z"/>
	<path fill="#306B32" d="M125.307,53.159c0.129,0,0.256-0.055,0.345-0.163c0.155-0.189,0.128-0.47-0.062-0.625l-0.815-0.667
		c-0.189-0.155-0.47-0.128-0.626,0.062c-0.155,0.19-0.128,0.47,0.063,0.625l0.814,0.668
		C125.107,53.127,125.207,53.159,125.307,53.159z"/>
	<path fill="#306B32" d="M123.676,49.232c0.014,0,0.027,0,0.041-0.003c0.244-0.021,0.426-0.237,0.402-0.482l-0.074-0.814
		c-0.021-0.246-0.237-0.427-0.482-0.403c-0.245,0.022-0.426,0.238-0.402,0.482l0.074,0.816
		C123.255,49.059,123.449,49.232,123.676,49.232z"/>
	<path fill="#306B32" d="M125.232,48.268c0.128,0,0.254-0.053,0.343-0.16l0.369-0.443c0.158-0.188,0.132-0.469-0.056-0.627
		c-0.189-0.156-0.47-0.131-0.627,0.058l-0.37,0.444c-0.157,0.189-0.132,0.469,0.057,0.627
		C125.031,48.234,125.133,48.268,125.232,48.268z"/>
	<path fill="#306B32" d="M127.085,48.252h0.297c0.245,0,0.444-0.299,0.444-0.545s-0.199-0.545-0.444-0.545h-0.297
		c-0.245,0-0.443,0.299-0.443,0.545S126.84,48.252,127.085,48.252z"/>
	<path fill="#306B32" d="M129.013,47.009c0.072,0,0.146-0.018,0.212-0.054l0.816-0.445c0.215-0.117,0.295-0.388,0.177-0.604
		s-0.388-0.295-0.603-0.177l-0.816,0.444c-0.215,0.117-0.295,0.388-0.178,0.604C128.703,46.926,128.855,47.009,129.013,47.009z"/>
	<path fill="#306B32" d="M125.678,42.785c0.07,0,0.143-0.018,0.209-0.053c0.217-0.115,0.299-0.385,0.184-0.602l-0.594-1.111
		c-0.115-0.217-0.385-0.299-0.602-0.184s-0.298,0.385-0.184,0.602l0.594,1.111C125.365,42.699,125.52,42.785,125.678,42.785z"/>
	<path fill="#306B32" d="M127.826,41.154c0.018,0,0.037-0.001,0.055-0.004c0.244-0.03,0.418-0.252,0.387-0.496l-0.074-0.593
		c-0.031-0.243-0.252-0.417-0.496-0.386c-0.244,0.03-0.416,0.253-0.385,0.496l0.072,0.593
		C127.414,40.989,127.605,41.154,127.826,41.154z"/>
	<path fill="#306B32" d="M129.531,38.412c0.067,0,0.135-0.015,0.199-0.047l0.592-0.296c0.221-0.11,0.309-0.377,0.199-0.597
		s-0.377-0.309-0.597-0.199l-0.593,0.297c-0.219,0.109-0.309,0.377-0.199,0.596C129.211,38.322,129.368,38.412,129.531,38.412z"/>
	<path fill="#306B32" d="M127.234,35.077c0.229,0,0.423-0.175,0.443-0.407l0.074-0.889c0.02-0.246-0.162-0.461-0.407-0.48
		c-0.247-0.023-0.46,0.162-0.479,0.406l-0.074,0.889c-0.021,0.245,0.161,0.46,0.406,0.48
		C127.209,35.077,127.223,35.077,127.234,35.077z"/>
	<path fill="#306B32" d="M125.604,38.189c0.18,0,0.35-0.109,0.416-0.288c0.086-0.229-0.03-0.486-0.26-0.572l-0.594-0.222
		c-0.229-0.088-0.485,0.029-0.572,0.26c-0.086,0.23,0.031,0.486,0.261,0.572l0.593,0.223
		C125.498,38.182,125.551,38.189,125.604,38.189z"/>
	<path fill="#306B32" d="M127.679,59.961h0.889c0.246,0,0.444-0.47,0.444-0.717c0-0.246-0.198-0.716-0.444-0.716h-0.889
		c-0.246,0-0.445,0.47-0.445,0.716C127.233,59.491,127.433,59.961,127.679,59.961z"/>
	<path fill="#306B32" d="M128.643,55.235c0.088,0,0.176-0.026,0.254-0.082l0.741-0.518c0.202-0.142,0.251-0.418,0.109-0.62
		c-0.141-0.2-0.418-0.249-0.618-0.108l-0.742,0.519c-0.201,0.141-0.25,0.418-0.109,0.619
		C128.364,55.169,128.502,55.235,128.643,55.235z"/>
	<path fill="#306B32" d="M122.865,58.866c0.246,0,0-0.199,0-0.444v-0.89c0-0.246,0.246-0.445,0-0.445c-0.245,0,0,0.199,0,0.445v0.89
		C122.865,58.667,122.62,58.866,122.865,58.866z"/>
	<path fill="#306B32" d="M120.49,61.459c0.054,0,0.107-0.009,0.16-0.029l0.963-0.37c0.229-0.088,0.344-0.346,0.256-0.574
		c-0.088-0.229-0.346-0.343-0.575-0.256l-0.964,0.37c-0.229,0.089-0.344,0.346-0.255,0.575
		C120.144,61.352,120.312,61.459,120.49,61.459z"/>
	<path fill="#306B32" d="M116.059,58.866c0.246,0,0.357-0.199,0.357-0.444v-0.594c0-0.245-0.111-0.444-0.357-0.444
		s-0.358,0.199-0.358,0.444v0.594C115.7,58.667,115.812,58.866,116.059,58.866z"/>
	<path fill="#306B32" d="M119.378,56.79c0.114,0,0.228-0.043,0.315-0.13l0.371-0.37c0.173-0.174,0.173-0.455,0-0.629
		c-0.174-0.174-0.456-0.174-0.63,0l-0.37,0.371c-0.174,0.173-0.174,0.454,0,0.628C119.151,56.747,119.265,56.79,119.378,56.79z"/>
	<path fill="#306B32" d="M114.785,65.239c0.221,0,0.412-0.164,0.439-0.39c0.03-0.243-0.142-0.466-0.386-0.496l-0.593-0.074
		c-0.244-0.03-0.466,0.142-0.496,0.386c-0.031,0.244,0.143,0.467,0.386,0.496l0.593,0.074
		C114.747,65.238,114.766,65.239,114.785,65.239z"/>
</g>
<polygon fill="#74BA74" points="194.182,35 194.182,59 212,59.667 207.909,47 216.712,35.667 "/>
<polygon fill="#74BA74" points="41.182,35 41.182,59 22.833,59.667 26.659,47 18.254,35.667 "/>
<polygon fill="#6AA56A" points="193.568,40 203.818,40 193.818,35 "/>
<polygon fill="#6AA56A" points="41.182,40 30.818,40 41.182,35 "/>
<g>
	<path fill="#FCF2CA" d="M43.643,51.893c0,0.539,0.08,1.021,0.24,1.444s0.383,0.784,0.668,1.081s0.62,0.523,1.005,0.68
		s0.804,0.234,1.257,0.234c0.27,0,0.529-0.052,0.779-0.155s0.481-0.239,0.694-0.407s0.404-0.358,0.574-0.571s0.31-0.427,0.419-0.642
		l0.539,0.352c-0.16,0.258-0.347,0.505-0.56,0.741s-0.461,0.446-0.744,0.63s-0.603,0.33-0.958,0.439s-0.754,0.164-1.195,0.164
		c-0.637,0-1.215-0.106-1.734-0.319s-0.964-0.501-1.333-0.864s-0.655-0.787-0.858-1.271s-0.305-0.996-0.305-1.535
		c0-0.359,0.047-0.71,0.141-1.052s0.228-0.662,0.401-0.961s0.387-0.572,0.639-0.82s0.537-0.461,0.855-0.639s0.667-0.316,1.046-0.416
		s0.783-0.149,1.213-0.149c0.406,0,0.782,0.055,1.128,0.164s0.66,0.255,0.943,0.437s0.534,0.392,0.753,0.63s0.408,0.486,0.568,0.744
		l-0.557,0.375c-0.16-0.312-0.329-0.582-0.507-0.809s-0.367-0.413-0.568-0.56s-0.415-0.255-0.642-0.325s-0.469-0.105-0.727-0.105
		c-0.445,0-0.86,0.08-1.245,0.24s-0.721,0.392-1.008,0.694s-0.513,0.669-0.677,1.099S43.643,51.354,43.643,51.893z"/>
	<path fill="#FCF2CA" d="M54.494,47.856l3.615,7.846h-1.312l-1.172-2.561h-3.293l-1.207,2.561H50.48l3.691-7.846H54.494z
		 M52.561,52.643h2.824l-1.395-3.035L52.561,52.643z"/>
	<path fill="#FCF2CA" d="M60.277,51.893c0,0.539,0.08,1.021,0.24,1.444s0.383,0.784,0.668,1.081s0.62,0.523,1.005,0.68
		s0.804,0.234,1.257,0.234c0.27,0,0.529-0.052,0.779-0.155s0.481-0.239,0.694-0.407s0.404-0.358,0.574-0.571s0.31-0.427,0.419-0.642
		l0.539,0.352c-0.16,0.258-0.347,0.505-0.56,0.741s-0.461,0.446-0.744,0.63s-0.603,0.33-0.958,0.439s-0.754,0.164-1.195,0.164
		c-0.637,0-1.215-0.106-1.734-0.319s-0.964-0.501-1.333-0.864s-0.655-0.787-0.858-1.271s-0.305-0.996-0.305-1.535
		c0-0.359,0.047-0.71,0.141-1.052s0.228-0.662,0.401-0.961s0.387-0.572,0.639-0.82s0.537-0.461,0.855-0.639s0.667-0.316,1.046-0.416
		s0.783-0.149,1.213-0.149c0.406,0,0.782,0.055,1.128,0.164s0.66,0.255,0.943,0.437s0.534,0.392,0.753,0.63s0.408,0.486,0.568,0.744
		l-0.557,0.375c-0.16-0.312-0.329-0.582-0.507-0.809s-0.367-0.413-0.568-0.56s-0.415-0.255-0.642-0.325s-0.469-0.105-0.727-0.105
		c-0.445,0-0.86,0.08-1.245,0.24s-0.721,0.392-1.008,0.694s-0.513,0.669-0.677,1.099S60.277,51.354,60.277,51.893z"/>
	<path fill="#FCF2CA" d="M74.152,48.032v0.492h-2.777v7.178h-1.289v-7.178h-2.777v-0.492H74.152z"/>
	<path fill="#FCF2CA" d="M75.201,48.032h1.289v4.975c0,0.328,0.057,0.636,0.17,0.923s0.273,0.539,0.48,0.756
		s0.458,0.388,0.753,0.513s0.624,0.188,0.987,0.188c0.367,0,0.698-0.062,0.993-0.188s0.545-0.296,0.75-0.513
		s0.362-0.469,0.472-0.756s0.164-0.595,0.164-0.923v-4.975h0.568v4.975c0,0.391-0.063,0.761-0.19,1.11s-0.326,0.655-0.598,0.917
		s-0.62,0.469-1.046,0.621s-0.936,0.229-1.529,0.229c-0.527,0-0.994-0.076-1.4-0.229s-0.747-0.36-1.022-0.624
		s-0.484-0.571-0.627-0.923s-0.214-0.727-0.214-1.125V48.032z"/>
	<path fill="#FCF2CA" d="M85.719,55.391c0.191,0,0.379-0.026,0.562-0.079s0.348-0.13,0.492-0.231s0.262-0.227,0.352-0.375
		s0.135-0.32,0.135-0.516c0-0.234-0.061-0.442-0.182-0.624s-0.28-0.35-0.478-0.504s-0.422-0.298-0.674-0.431
		s-0.51-0.268-0.773-0.404s-0.521-0.279-0.773-0.428s-0.477-0.313-0.674-0.495s-0.356-0.386-0.478-0.612s-0.182-0.486-0.182-0.779
		s0.055-0.564,0.164-0.814s0.271-0.468,0.483-0.653s0.475-0.33,0.785-0.434s0.667-0.155,1.069-0.155
		c0.363,0,0.688,0.039,0.973,0.117s0.535,0.191,0.75,0.34s0.397,0.334,0.548,0.557s0.272,0.477,0.366,0.762l-0.662,0.305
		c-0.078-0.238-0.177-0.454-0.296-0.647s-0.262-0.359-0.428-0.498s-0.357-0.246-0.574-0.322s-0.462-0.114-0.735-0.114
		c-0.242,0-0.454,0.034-0.636,0.103s-0.332,0.156-0.451,0.264s-0.209,0.23-0.27,0.369s-0.091,0.278-0.091,0.419
		c0,0.203,0.062,0.389,0.188,0.557s0.289,0.326,0.492,0.475s0.435,0.292,0.694,0.431s0.524,0.279,0.794,0.422
		s0.534,0.291,0.794,0.445s0.491,0.323,0.694,0.507s0.367,0.385,0.492,0.604s0.188,0.463,0.188,0.732
		c0,0.305-0.058,0.591-0.173,0.858s-0.288,0.501-0.519,0.7s-0.518,0.356-0.861,0.472s-0.744,0.173-1.201,0.173
		c-0.367,0-0.696-0.041-0.987-0.123s-0.548-0.2-0.771-0.354s-0.413-0.343-0.571-0.565s-0.288-0.475-0.39-0.756l0.697-0.287
		c0.078,0.25,0.186,0.474,0.322,0.671s0.296,0.364,0.478,0.501s0.384,0.241,0.606,0.313S85.469,55.391,85.719,55.391z"/>
</g>
<g>
	<path fill="#FCF2CA" d="M157.589,48.032h1.289v7.172h3.861v0.498h-5.15V48.032z"/>
	<path fill="#FCF2CA" d="M166.894,47.856l3.615,7.846h-1.312l-1.172-2.561h-3.293l-1.207,2.561h-0.645l3.691-7.846H166.894z
		 M164.96,52.643h2.824l-1.395-3.035L164.96,52.643z"/>
	<path fill="#FCF2CA" d="M171.493,48.032h0.727l5.027,5.607h0.047v-5.607h0.568v7.852h-0.299l-5.443-6.24h-0.047v6.059h-0.58V48.032
		z"/>
	<path fill="#FCF2CA" d="M179.79,48.032h2.555c0.789,0,1.467,0.073,2.033,0.22s1.039,0.382,1.418,0.706
		c0.438,0.367,0.765,0.79,0.981,1.269s0.325,1.003,0.325,1.573c0,0.539-0.098,1.046-0.293,1.521s-0.482,0.888-0.861,1.239
		s-0.844,0.63-1.395,0.835s-1.184,0.308-1.898,0.308h-2.865V48.032z M181.079,55.139h1.371c0.434,0,0.841-0.071,1.222-0.214
		s0.713-0.354,0.996-0.636s0.507-0.629,0.671-1.043s0.246-0.891,0.246-1.43c0-0.469-0.077-0.9-0.231-1.295s-0.37-0.734-0.647-1.02
		s-0.607-0.508-0.99-0.668s-0.803-0.24-1.26-0.24h-1.377V55.139z"/>
</g>
</svg>
