<?xml version="1.0" encoding="utf-8"?>
<!-- Generator: Adobe Illustrator 16.0.0, SVG Export Plug-In . SVG Version: 6.00 Build 0)  -->
<!DOCTYPE svg PUBLIC "-//W3C//DTD SVG 1.1//EN" "http://www.w3.org/Graphics/SVG/1.1/DTD/svg11.dtd">
<svg version="1.1" id="Layer_1" xmlns="http://www.w3.org/2000/svg" xmlns:xlink="http://www.w3.org/1999/xlink" x="0px" y="0px"
	 width="806px" height="286px" viewBox="0 0 806 286" enable-background="new 0 0 806 286" xml:space="preserve">
<polygon fill="#55BB91" points="0,286 0,231.836 72,71 114,130 172,2 276,175 300,145 378.499,224.432 453.834,196.768 552.833,286 
	"/>
<polygon fill="#529972" points="121.5,113.75 114,129.75 131,152 "/>
<polygon fill="#4FA882" points="300,146.782 286,175.674 294,171.621 283.75,194.592 289.5,190.566 289.5,257.566 308,286 362,286 
	"/>
<polygon fill="#4FA882" points="172,2 157.5,40 163.5,36.5 152,86 158.5,81.5 137,158 153.5,118 162.5,146.5 165.5,143.5 212,271.5 
	275.75,174.75 "/>
<polygon fill="#529972" points="275.75,175 211.332,272.667 268,161.5 "/>
<polygon fill="#55BB91" points="443.168,286 515,69 557,128 615,0 719,173 743,143 806,231.836 806,286 "/>
<polygon fill="#529972" points="564.5,111.75 557,127.75 574,150 "/>
<polygon fill="#4FA882" points="743.334,142.551 729.334,171.441 737,170.055 726.75,193.025 732.5,189 732.5,256 751,284.434 
	805,284.434 "/>
<polygon fill="#4FA882" points="615,0 600.5,38 606.5,34.5 595,84 601.5,79.5 580,156 596.5,116 605.5,144.5 608.5,141.5 655,269.5 
	718.75,172.75 "/>
<polygon fill="#529972" points="718.75,173 654.332,270.667 711,159.5 "/>
<polygon fill="#529972" points="378.167,224.768 453.5,197.102 388.167,234.768 "/>
</svg>
