<?xml version="1.0" encoding="utf-8"?>
<!-- Generator: Adobe Illustrator 16.0.0, SVG Export Plug-In . SVG Version: 6.00 Build 0)  -->
<!DOCTYPE svg PUBLIC "-//W3C//DTD SVG 1.1//EN" "http://www.w3.org/Graphics/SVG/1.1/DTD/svg11.dtd">
<svg version="1.1" id="Layer_1" xmlns="http://www.w3.org/2000/svg" xmlns:xlink="http://www.w3.org/1999/xlink" x="0px" y="0px"
	 width="332px" height="250px" viewBox="0 0 332 250" enable-background="new 0 0 332 250" xml:space="preserve">
<rect fill="#6D532D" width="332" height="250"/>
<ellipse fill="#755A39" cx="261.339" cy="156.338" rx="8.17" ry="3.891"/>
<ellipse fill="#755A39" cx="264.006" cy="58.767" rx="9.504" ry="5.319"/>
<path fill="#604726" d="M264.999,59.666c0,0-14.333-4.333,2.333-12c7.333,1.333,7,6.667,7,6.667l-1.667,6.333L264.999,59.666z"/>
<path fill="#604726" d="M267.07,151.602c0,0,6.404,8.634-6.482,5.917c-3.655-3.908-1.18-6.839-1.18-6.839l3.672-2.936
	L267.07,151.602z"/>
<ellipse fill="#755A39" cx="175.006" cy="118.767" rx="9.504" ry="5.319"/>
<path fill="#604726" d="M168.667,115.999c0,0,4.333-8.667,8.333-5.667s6.667,5.333,7,7.667s-5,1.333-5,1.333l-6-1.667
	L168.667,115.999z"/>
<ellipse fill="#755A39" cx="86.839" cy="88.601" rx="4.337" ry="3.152"/>
<path fill="#604726" d="M98.001,59.666c0,0,3.667-4.666,7-2.333s2.333,5,2.333,5L98.001,59.666z"/>
<ellipse fill="#755A39" cx="97.506" cy="110.601" rx="4.004" ry="3.152"/>
<path fill="#604726" d="M97.001,108.999c0,0,1.333-5.667,3.667-3.333s3.667,5,2.333,5.333S97.001,108.999,97.001,108.999z"/>
<ellipse fill="#755A39" cx="40.339" cy="159.601" rx="2.837" ry="2.152"/>
<path fill="#604726" d="M39.667,155.333c0,0,4.333-1,4.333,3s-3.667,1-3.667,1L39.667,155.333z"/>
<ellipse fill="#755A39" cx="29.006" cy="165.934" rx="3.504" ry="1.819"/>
<ellipse fill="#755A39" cx="103.173" cy="62.043" rx="5.671" ry="2.709"/>
<path fill="#604726" d="M89.058,115.369c0,0-5.605-1.574-3.174-3.806c2.431-2.231,5.152-3.45,5.428-2.104
	C91.588,110.806,89.058,115.369,89.058,115.369z"/>
<ellipse fill="#755A39" cx="70.839" cy="77.267" rx="4.337" ry="1.486"/>
<ellipse fill="#755A39" cx="191.339" cy="137.601" rx="2.837" ry="2.152"/>
<path fill="#604726" d="M190.667,133.333c0,0,4.333-1,4.333,3s-3.667,1-3.667,1L190.667,133.333z"/>
<ellipse fill="#755A39" cx="180.006" cy="143.934" rx="3.504" ry="1.819"/>
<ellipse fill="#755A39" cx="189.339" cy="210.601" rx="2.837" ry="2.152"/>
<path fill="#604726" d="M188.667,206.333c0,0,4.333-1,4.333,3s-3.667,1-3.667,1L188.667,206.333z"/>
<ellipse fill="#755A39" cx="148.339" cy="9.601" rx="2.837" ry="2.152"/>
<path fill="#604726" d="M147.667,5.333c0,0,4.333-1,4.333,3s-3.667,1-3.667,1L147.667,5.333z"/>
<ellipse fill="#755A39" cx="185.006" cy="129.934" rx="3.504" ry="1.819"/>
</svg>
